<svg width="84" height="19" viewBox="0 0 84 19" fill="none" xmlns="http://www.w3.org/2000/svg">
<path d="M0 0.21875H16.7292V3.62197H5.08692V7.52613H15.995V10.9294H5.08692V18.0875H0V0.21875Z" fill="#343741"/>
<path d="M31.4102 14.4099H22.8097L21.2888 18.0886H15.8086L24.0421 0.21875H30.1778L38.4113 18.0875H32.9311L31.4102 14.4088V14.4099ZM27.11 4.07391L24.1732 11.157H30.0467L27.11 4.07391Z" fill="#343741"/>
<path d="M39.832 0.125H53.4409C58.6327 0.125 59.498 3.15359 59.498 4.97989C59.498 7.15686 58.5802 8.55844 56.4563 9.28482V9.33492C58.6851 9.66054 59.026 12.3635 59.026 14.1147C59.026 14.9902 59.1046 17.0932 59.9962 17.9938H54.4373C53.9653 17.1683 53.9391 16.4419 53.9391 14.5655C53.9391 12.0629 52.8115 11.4367 51.2383 11.4367H44.919V17.9938H39.832V0.125ZM44.919 8.03353H51.6578C52.7853 8.03353 54.0964 7.43238 54.0964 5.75637C54.0964 3.97907 52.628 3.5293 51.3956 3.5293H44.919V8.03462V8.03353Z" fill="#343741"/>
<path d="M72.5075 0C82.2749 0 83.8001 5.53445 83.8001 9.1522C83.8001 12.77 82.2738 18.3044 72.5075 18.3044C62.7411 18.3044 61.2148 12.77 61.2148 9.1522C61.2148 5.53445 62.7411 0 72.5075 0ZM72.5075 15.0025C76.9836 15.0025 78.5613 11.8465 78.5613 9.1522C78.5613 6.45794 76.9847 3.30194 72.5075 3.30194C68.0302 3.30194 66.4536 6.45794 66.4536 9.1522C66.4536 11.8465 68.0302 15.0025 72.5075 15.0025Z" fill="#343741"/>
</svg>
