<svg width="660" height="215" viewBox="0 0 660 215" fill="none" xmlns="http://www.w3.org/2000/svg">
<g clip-path="url(#clip0_5246_1412)">
<path d="M231.2 57.92V158.01C231.2 159.12 230.3 160.02 229.19 160.02H206.28C205.17 160.02 204.27 159.12 204.27 158.01V57.92C204.27 56.81 205.17 55.91 206.28 55.91H229.19C230.3 55.91 231.2 56.81 231.2 57.92Z" fill="#3E7040"/>
<path d="M248.87 57.92C248.87 56.81 249.77 55.91 250.88 55.91H292.78C311.01 55.91 324.54 69.03 324.54 86.7C324.54 103.06 316.61 112.21 305.34 116.84C304.12 117.34 303.69 118.86 304.5 119.91L332.7 156.79C333.71 158.11 332.77 160.02 331.11 160.02H302.16C301.48 160.02 300.84 159.67 300.47 159.1L279.49 126.65C278.4 124.97 275.8 125.74 275.8 127.74V158.01C275.8 159.12 274.9 160.02 273.79 160.02H250.88C249.77 160.02 248.87 159.12 248.87 158.01V57.92ZM279.94 102.86C291.26 102.86 296.37 98.44 296.37 88.78C296.37 81.46 291.54 77.46 282.98 77.46H277.81C276.7 77.46 275.8 78.36 275.8 79.47V100.86C275.8 101.97 276.7 102.87 277.81 102.87H279.95L279.94 102.86Z" fill="#3E7040"/>
<path d="M332.82 108.52C332.82 76.21 357.67 54.12 389.71 54.12C421.75 54.12 445.9 74.69 445.9 107.69C445.9 140.69 421.32 161.81 389.71 161.81C355.74 161.81 332.82 139.58 332.82 108.51V108.52ZM417.32 108.52C417.32 90.43 405.17 79.8 389.57 79.8C372.04 79.8 361.4 93.05 361.4 108.93C361.4 124.81 372.03 136.82 389.57 136.82C405.72 136.82 417.32 123.15 417.32 108.52Z" fill="#3E7040"/>
<path d="M546.56 108.52C546.56 76.21 571.41 54.12 603.45 54.12C635.49 54.12 659.64 74.69 659.64 107.69C659.64 140.69 635.06 161.81 603.45 161.81C569.48 161.81 546.56 139.58 546.56 108.51V108.52ZM631.06 108.52C631.06 90.43 618.91 79.8 603.31 79.8C585.78 79.8 575.14 93.05 575.14 108.93C575.14 124.81 585.77 136.82 603.31 136.82C619.46 136.82 631.06 123.15 631.06 108.52Z" fill="#3E7040"/>
<path d="M508.12 105.3L508.04 105.2L546.56 59.2C547.65 57.89 546.73 55.9 545.02 55.9H519.78C519.16 55.9 518.58 56.18 518.2 56.67L486.63 96.91H486.35V57.91C486.35 56.8 485.45 55.9 484.34 55.9H461.43C460.32 55.9 459.42 56.8 459.42 57.91V158C459.42 159.11 460.32 160.01 461.43 160.01H484.34C485.45 160.01 486.35 159.11 486.35 158V130.35C486.35 129.88 486.52 129.42 486.82 129.06L490.92 124.18L508.11 105.29L508.12 105.3Z" fill="#3E7040"/>
<path d="M511.62 113.07L496.97 129.17C496.31 129.89 496.27 130.99 496.88 131.76L518.48 159.25C518.86 159.73 519.44 160.02 520.06 160.02H549.45C551.15 160.02 552.08 158.04 550.99 156.73L514.64 113.14C513.86 112.2 512.43 112.17 511.61 113.07H511.62Z" fill="#3E7040"/>
<path d="M77.1301 139.48C76.9701 139.01 76.6201 138.62 76.2001 138.35L71.1801 135.1C69.6601 134.12 67.6301 134.55 66.6401 136.07L63.3901 141.09C63.1201 141.51 62.9601 142 63.0101 142.5C63.0701 143.18 63.4301 143.77 63.9901 144.13L70.0401 148.04C71.0401 148.68 72.3701 148.4 73.0101 147.4L76.9201 141.35C77.2801 140.79 77.3701 140.11 77.1401 139.46L77.1301 139.48Z" fill="#3E7040"/>
<path d="M52.4601 174.66C52.1401 174.57 51.8001 174.62 51.5101 174.78L49.9601 175.67C49.6701 175.84 49.4601 176.11 49.3701 176.43C49.2801 176.75 49.3301 177.09 49.4901 177.38C49.5901 177.56 49.7001 177.79 49.8101 178.03C50.0901 178.64 50.5501 179.65 51.0301 179.66H51.0401C51.1201 179.66 51.2401 179.62 51.3401 179.58C51.9701 179.36 52.5401 179.07 53.1401 178.76C53.3201 178.67 53.5001 178.58 53.6801 178.49C53.9501 178.34 54.1501 178.07 54.2401 177.74C54.3301 177.41 54.2801 177.08 54.1201 176.79L53.2301 175.24C53.0601 174.95 52.7901 174.74 52.4701 174.65L52.4601 174.66Z" fill="#3E7040"/>
<path d="M51.0398 180.21C50.2598 180.19 49.7898 179.28 49.3198 178.26C49.2098 178.03 49.1198 177.82 49.0198 177.65C48.7798 177.23 48.7198 176.75 48.8498 176.29C48.9798 175.83 49.2698 175.44 49.6898 175.2L51.2398 174.31C51.6598 174.07 52.1398 174.01 52.5998 174.14C53.0598 174.27 53.4498 174.56 53.6898 174.98L54.5798 176.53C54.8198 176.95 54.8798 177.43 54.7498 177.89C54.6298 178.34 54.3298 178.74 53.9398 178.96C53.7598 179.05 53.6098 179.13 53.4698 179.2L53.3798 179.24C52.7598 179.56 52.1798 179.86 51.5098 180.09C51.3698 180.14 51.1998 180.2 51.0398 180.2V180.21ZM52.1298 175.15C52.0098 175.15 51.8798 175.18 51.7698 175.25L50.2198 176.14C50.0498 176.24 49.9298 176.39 49.8798 176.58C49.8298 176.77 49.8498 176.96 49.9498 177.13C50.0598 177.32 50.1698 177.56 50.2898 177.82C50.4198 178.11 50.8098 178.96 51.0598 179.14C51.0898 179.14 51.1298 179.12 51.1598 179.1C51.7498 178.9 52.3098 178.61 52.8898 178.31L52.9798 178.27C53.1298 178.19 53.2798 178.11 53.4398 178.04C53.5598 177.97 53.6698 177.81 53.7198 177.63C53.7698 177.44 53.7498 177.25 53.6498 177.08L52.7598 175.53C52.6598 175.36 52.5098 175.24 52.3198 175.19C52.2598 175.17 52.1898 175.16 52.1298 175.16V175.15Z" fill="#3E7040"/>
<path d="M54.7498 165.22C54.9198 164.99 55.0698 164.77 55.2198 164.6C55.6698 164.07 55.5998 163.27 55.0698 162.83L53.6998 161.67C53.1698 161.22 52.3698 161.29 51.9298 161.82L50.7698 163.19C50.3198 163.72 50.3898 164.51 50.9198 164.96C51.0998 165.11 51.2898 165.31 51.4998 165.52C51.9598 165.98 52.7198 166.74 53.1598 166.74H53.1798L53.2598 167.25L53.1998 166.73C53.6898 166.67 54.3198 165.79 54.7398 165.21L54.7498 165.22Z" fill="#3E7040"/>
<path d="M53.1701 168.62C52.0301 168.62 51.1401 167.82 50.1801 166.84C50.0101 166.67 49.8601 166.51 49.7201 166.39C48.4001 165.27 48.2301 163.29 49.3501 161.96L50.5101 160.59C51.0501 159.95 51.8101 159.56 52.6501 159.49C53.4801 159.42 54.3001 159.68 54.9401 160.22L56.3101 161.38C57.6301 162.5 57.8001 164.48 56.6801 165.8C56.5601 165.94 56.4301 166.12 56.3001 166.31L54.8801 165.29L56.3001 166.32C55.6201 167.27 54.7701 168.45 53.4601 168.6H53.2801L53.1901 168.62H53.1701ZM53.2201 164.12C53.2801 164.04 53.3401 163.96 53.3901 163.88L52.9601 163.51L52.5901 163.94C52.6701 164.02 52.7501 164.1 52.8301 164.18C52.8801 164.23 52.9501 164.3 53.0201 164.37C53.0901 164.27 53.1601 164.18 53.2101 164.11L53.2201 164.12Z" fill="#3E7040"/>
<path d="M60.05 190.41C60.26 190.32 60.46 190.23 60.65 190.16L62.46 189.51C63.09 189.28 63.42 188.58 63.19 187.95L62.1 184.93C61.99 184.62 61.77 184.38 61.47 184.24C61.18 184.1 60.85 184.09 60.54 184.2L57.52 185.29C57.21 185.4 56.97 185.62 56.83 185.92C56.69 186.21 56.68 186.54 56.79 186.85L57.41 188.58C57.49 188.8 57.56 189.05 57.62 189.28C57.78 189.87 57.94 190.48 58.33 190.73C58.36 190.75 58.38 190.76 58.41 190.77C58.82 190.96 59.48 190.67 60.06 190.41H60.05Z" fill="#3E7040"/>
<path d="M58.7098 191.37C58.5298 191.37 58.3498 191.34 58.1798 191.26C58.1298 191.24 58.0798 191.21 58.0298 191.18C57.4698 190.82 57.2698 190.08 57.0998 189.42C57.0398 189.2 56.9798 188.97 56.9098 188.76L56.2898 187.03C56.1298 186.59 56.1498 186.11 56.3498 185.69C56.5498 185.27 56.8998 184.94 57.3398 184.79L60.3598 183.7C60.7998 183.54 61.2798 183.56 61.6998 183.76C62.1198 183.96 62.4498 184.31 62.5998 184.75L63.6898 187.77C64.0198 188.68 63.5398 189.69 62.6298 190.02L60.8198 190.67C60.6498 190.73 60.4598 190.82 60.2598 190.9L60.0398 190.41L60.2498 190.9C59.7498 191.12 59.1998 191.36 58.6998 191.36L58.7098 191.37ZM60.9498 184.67C60.8698 184.67 60.7898 184.68 60.7198 184.71L57.6998 185.8C57.5298 185.86 57.3898 185.99 57.3098 186.15C57.2298 186.31 57.2198 186.5 57.2898 186.67L57.9098 188.4C57.9998 188.64 58.0598 188.9 58.1298 189.15C58.2498 189.59 58.3898 190.15 58.6098 190.28C58.8098 190.37 59.4998 190.07 59.8198 189.93C60.0398 189.83 60.2598 189.74 60.4498 189.67L62.2598 189.02C62.6098 188.89 62.7998 188.5 62.6698 188.15L61.5798 185.13C61.5198 184.96 61.3898 184.82 61.2298 184.74C61.1398 184.7 61.0398 184.68 60.9398 184.68L60.9498 184.67Z" fill="#3E7040"/>
<path d="M62.8001 167.96C62.8001 167.96 62.7201 167.96 62.6801 167.96C62.3901 167.96 62.1101 168.06 61.8801 168.25L59.4801 170.25C58.9501 170.69 58.8801 171.49 59.3201 172.02C59.5201 172.26 59.7201 172.52 59.9201 172.77C60.5201 173.54 61.1301 174.33 61.9101 174.8C62.0301 174.87 62.1501 174.94 62.2501 174.96C62.2501 174.96 62.2801 174.96 62.2901 174.96C63.0601 174.9 63.9801 174.01 64.7201 173.3C65.0001 173.03 65.2601 172.78 65.5001 172.58C65.7601 172.37 65.9201 172.06 65.9501 171.73C65.9801 171.4 65.8801 171.07 65.6601 170.81L63.6601 168.41C63.4501 168.15 63.1401 167.99 62.8101 167.96H62.8001Z" fill="#3E7040"/>
<path d="M62.2599 175.5H62.1499C61.9699 175.46 61.8099 175.37 61.6199 175.26C60.7599 174.74 60.1099 173.91 59.4899 173.1C59.2799 172.83 59.0999 172.59 58.8999 172.36C58.2699 171.6 58.3699 170.46 59.1299 169.83L61.5299 167.83C61.8999 167.53 62.3799 167.38 62.8399 167.42C63.3199 167.46 63.7499 167.69 64.0499 168.06L66.0499 170.46C66.3599 170.83 66.4999 171.29 66.4599 171.77C66.4199 172.25 66.1899 172.68 65.8199 172.99C65.5999 173.18 65.3499 173.41 65.0899 173.66C64.2199 174.5 63.2699 175.42 62.3099 175.49H62.2399L62.2599 175.5ZM62.6799 168.49C62.5099 168.49 62.3499 168.55 62.2199 168.66L59.8199 170.66C59.5099 170.91 59.4699 171.37 59.7299 171.67C59.9299 171.91 60.1199 172.16 60.3199 172.41C60.9099 173.16 61.4899 173.91 62.1799 174.33C62.2499 174.37 62.2899 174.39 62.3099 174.41C62.8699 174.31 63.7499 173.47 64.3299 172.91C64.6299 172.62 64.8899 172.37 65.1399 172.16C65.2899 172.04 65.3799 171.86 65.3999 171.67C65.4199 171.48 65.3599 171.29 65.2399 171.14L63.2399 168.74C63.1199 168.59 62.9399 168.5 62.7499 168.48C62.7499 168.48 62.7099 168.48 62.6899 168.48L62.6799 168.49Z" fill="#3E7040"/>
<path d="M63.8602 153.25L61.1602 151.68C60.9702 151.57 60.7502 151.51 60.5302 151.51C60.4202 151.51 60.3102 151.52 60.2102 151.55C59.8902 151.64 59.6102 151.84 59.4402 152.13L57.8702 154.83C57.5202 155.43 57.7302 156.2 58.3202 156.55C58.5902 156.71 58.8702 156.89 59.1702 157.09C60.0002 157.64 60.9302 158.26 61.7802 158.26C61.8002 158.26 61.8202 158.26 61.8302 158.26C61.8902 158.26 61.9502 158.26 62.0002 158.24C62.7902 158.06 63.4102 156.78 63.8702 155.84C64.0302 155.52 64.1702 155.22 64.3202 154.97C64.6702 154.37 64.4602 153.6 63.8702 153.25H63.8602Z" fill="#3E7040"/>
<path d="M61.7799 160.14C60.3699 160.14 59.1299 159.32 58.1299 158.66C57.8599 158.48 57.6199 158.32 57.3799 158.18C55.8799 157.31 55.3699 155.38 56.2399 153.89L57.8099 151.19C58.2299 150.46 58.9099 149.95 59.7199 149.73C60.4999 149.52 61.3799 149.63 62.0999 150.05L64.7999 151.62C65.5199 152.04 66.0399 152.72 66.2599 153.53C66.4699 154.34 66.3599 155.19 65.9399 155.91C65.8299 156.1 65.6899 156.39 65.5599 156.66C64.9599 157.9 64.1399 159.58 62.5699 160.03L62.4199 160.07C62.2499 160.11 62.0699 160.13 61.8899 160.14H61.7699H61.7799ZM59.8099 155.25C59.9399 155.33 60.0699 155.42 60.2099 155.51C60.5599 155.74 61.1199 156.11 61.4999 156.28C61.7399 155.92 62.0399 155.31 62.1899 155.01C62.2599 154.86 62.3299 154.71 62.4099 154.57L60.7699 153.62L59.8199 155.26L59.8099 155.25Z" fill="#3E7040"/>
<path d="M73.7398 178.23C73.4098 178.14 73.0798 178.19 72.7898 178.35L68.6298 180.74C68.0298 181.08 67.8198 181.85 68.1598 182.46C68.3898 182.86 68.5898 183.29 68.8098 183.75C69.4298 185.07 70.0698 186.43 71.2398 186.91C71.2998 186.93 71.3498 186.95 71.4098 186.97C72.1498 187.19 72.7998 186.8 73.5698 186.35C73.6898 186.28 73.8198 186.2 73.9398 186.13L76.4298 184.7C76.7198 184.53 76.9298 184.26 77.0198 183.94C77.1098 183.62 77.0598 183.28 76.8998 182.99L74.5098 178.83C74.3398 178.54 74.0698 178.33 73.7498 178.24L73.7398 178.23Z" fill="#3E7040"/>
<path d="M78.5898 160.85L74.9298 157.75C74.6898 157.55 74.4098 157.45 74.1198 157.45C73.7598 157.45 73.4098 157.6 73.1598 157.9L70.0598 161.56C69.6098 162.09 69.6798 162.89 70.2098 163.33L74.8398 167.24L78.7498 162.61C79.1998 162.08 79.1298 161.29 78.5998 160.84L78.5898 160.85Z" fill="#3E7040"/>
<path d="M76.7498 167.89C75.8098 169 74.1498 169.14 73.0298 168.2L68.9798 164.78C67.6598 163.66 67.4898 161.68 68.6098 160.35L71.7098 156.68C72.4798 155.77 73.7098 155.36 74.9198 155.67C75.3998 155.79 75.8298 156.05 76.1998 156.36L79.7998 159.4C81.1198 160.52 81.2898 162.5 80.1698 163.82L76.7498 167.87V167.89ZM71.8898 162.31L74.5998 164.6L76.8898 161.89L74.1798 159.6L71.8898 162.31Z" fill="#3E7040"/>
<path d="M88.1699 151.58L83.3099 147.92C82.8899 147.61 82.3899 147.45 81.9299 147.45C81.5299 147.45 81.1699 147.57 80.9299 147.82L77.5099 151.33C77.2799 151.57 77.2399 151.85 77.2599 152.04C77.2899 152.46 77.5599 152.88 77.9899 153.21L80.6499 155.22C80.9499 155.44 81.2399 155.69 81.5199 155.92C82.1999 156.49 82.8399 157.02 83.5999 157.34C83.8599 157.45 84.0899 157.51 84.2799 157.52C84.6999 157.55 84.9299 157.32 85.3699 156.85C85.4299 156.78 85.4999 156.71 85.5699 156.64L88.6599 153.46C88.8899 153.22 88.9299 152.94 88.9099 152.75C88.8799 152.33 88.6099 151.91 88.1799 151.58H88.1699Z" fill="#3E7040"/>
<path d="M79.0898 172.65C78.8398 172.77 78.6798 172.98 78.6098 173.26C78.4898 173.74 78.6498 174.35 79.0498 174.9C79.4498 175.45 79.8298 176.05 80.2498 176.68C81.3398 178.36 82.5798 180.26 84.0098 181.31C84.2998 181.52 84.6298 181.76 84.9398 181.91C85.4798 182.19 85.7398 182.12 85.9498 182.01C86.6298 181.64 87.3598 181.27 88.1598 180.87L90.9498 179.5C91.1998 179.38 91.3598 179.17 91.4298 178.89C91.5498 178.41 91.3898 177.8 90.9898 177.25L86.7398 171.31C86.0398 170.33 84.8098 169.82 84.0598 170.19L79.0998 172.63L79.0898 172.65Z" fill="#3E7040"/>
<path d="M81.02 174.05C81.36 174.54 81.69 175.04 82.01 175.54C83.01 177.07 84.13 178.8 85.25 179.63C85.31 179.68 85.43 179.76 85.56 179.85C86.09 179.57 86.64 179.29 87.22 179.01L89 178.13L85.02 172.56C84.91 172.41 84.78 172.31 84.68 172.25L81.02 174.05Z" fill="#3E7040"/>
<path d="M63.4499 4.99C54.0499 2.66 44.4199 1.22 34.7499 0.699998C31.1899 0.509998 22.6299 -1.16 19.8099 1.44C16.9899 4.04 16.5599 13.58 15.6899 17.3C14.9799 20.31 14.2799 23.33 14.0999 26.42C14.0599 27.11 14.0599 27.85 14.4599 28.41C14.7799 28.85 15.2899 29.1 15.7999 29.31C21.3199 31.56 28.7199 31.06 34.6099 31.75C37.0999 32.04 39.6799 32.35 42.2399 32.58C45.5499 32.88 48.5599 32.91 51.4399 32.68C51.9099 32.64 52.3699 32.61 52.8199 32.58C56.0599 32.35 58.8599 32.15 61.5899 30.33C65.2499 27.89 68.6099 24.96 71.5799 21.64C71.7099 21.5 71.8699 21.32 72.0599 21.11C73.7299 19.28 78.8699 14.62 78.3499 11.65C77.8799 9.01 72.7099 7.6 70.5899 6.97C68.2299 6.26 65.8399 5.61 63.4499 5.01V4.99Z" fill="#3E7040"/>
<path d="M129.23 29.23C123.37 25.4 116.63 22.9 110.11 20.48C109.41 20.22 108.7 19.96 108 19.69C103.83 18.12 99.5099 16.51 94.9899 16.36C93.2899 16.31 91.9699 16.49 90.8399 16.94C89.3399 17.54 88.0499 18.68 86.8699 19.8C86.3999 20.25 85.7699 20.8 85.0399 21.43C81.9599 24.1 76.8099 28.58 76.9399 31.77V31.89C77.0499 33.1 77.9699 34.04 79.7299 34.76L99.2399 42.67C100.46 43.16 101.49 43.64 102.4 44.07C105.89 45.7 107.64 46.51 112.59 44.82C118.02 42.97 125.06 40.39 131.41 36.89C133.15 35.93 134.05 34.99 134.08 34.09C134.14 32.45 131.29 30.58 129.22 29.23H129.23Z" fill="#3E7040"/>
<path d="M161.14 64.84C159.66 62.87 158.25 61 156.48 59.23C153.73 56.48 151.27 53.45 148.9 50.52C147.97 49.37 147.01 48.19 146.05 47.04C143.1 43.52 139.61 44.45 134.92 47.09L127.45 51.29C126.75 51.69 125.61 51.99 124.4 52.31C122.8 52.74 120.82 53.27 120.28 53.99C119.3 55.38 120.5 57.96 123.57 61.07L136.14 73.84C137.21 74.93 138.43 76.16 139.94 76.59C140.81 76.84 141.74 76.81 142.71 76.78H142.8C143.99 76.74 145.19 76.73 146.39 76.73C149.65 76.73 152.93 76.85 156.18 77.1L156.51 77.12C158.32 77.26 160.2 77.4 161.92 76.94C163.41 76.55 165.3 75.42 165.72 73.52C166.07 71.99 165.42 70.22 163.8 68.27C162.85 67.13 161.98 65.97 161.13 64.84H161.14Z" fill="#3E7040"/>
<path d="M44.7902 38.54C35.9102 36.72 25.9902 37.91 17.1302 37.86C7.93017 37.81 8.03017 51.57 6.34017 58.16C6.12017 59 6.21017 59.8 6.59017 60.53C7.32017 61.92 9.13017 63.02 11.2002 63.32C14.6202 63.82 18.1002 62.46 21.5402 62.29C26.0302 62.07 30.5202 61.86 35.0002 61.64C35.5402 61.61 36.0902 61.58 36.5802 61.36C37.2602 61.05 37.7102 60.41 38.1302 59.79C39.6702 57.55 41.3102 55.79 43.0702 53.81C44.7402 51.93 46.4102 49.55 47.7802 47.45C49.2502 45.2 52.8202 40.91 48.6202 39.54C47.3702 39.13 46.0902 38.8 44.7902 38.53V38.54Z" fill="#3E7040"/>
<path d="M94.3298 48.41C92.0198 46.42 88.3599 45.34 85.1199 44.39C84.2099 44.12 83.3598 43.87 82.5499 43.61C82.0399 43.44 81.5098 43.26 80.9698 43.08C75.0098 41.07 67.5998 38.57 62.8598 43.34C61.5998 44.61 60.5598 46.13 59.5498 47.61C59.0998 48.27 58.6398 48.95 58.1498 49.61C57.8698 49.99 57.5798 50.37 57.2998 50.74C55.2398 53.43 53.5698 56.69 53.1698 60.09C53.1198 60.47 53.0998 60.87 53.2398 61.22C53.5198 61.9 54.3098 62.18 55.0298 62.35C57.3398 62.9 59.3898 63.14 61.6198 63.91C63.7198 64.64 65.9098 65.11 68.0898 65.58C68.4098 65.65 68.7098 65.71 68.9898 65.78C69.7698 65.95 70.5898 66.19 71.3798 66.42C73.4098 67.01 75.5098 67.62 77.4198 67.3C79.2698 66.99 80.9599 66.13 82.3699 65.33C87.2299 62.57 91.5798 58.74 94.9398 54.27C96.7999 51.79 96.6599 50.43 94.3298 48.41Z" fill="#3E7040"/>
<path d="M118.17 83.57C123.3 82.41 129.67 80.96 130.37 78.5C130.61 77.65 130.12 76.63 128.92 75.46C118.68 65.24 113.77 61.52 109.49 60.71C104.92 59.85 100.9 62.36 93.6098 66.93C91.9498 67.97 90.0698 69.15 88.0098 70.39C87.7198 70.79 88.0598 71.92 89.8498 73.94C94.9598 79.71 107.6 87.83 109.89 86.12C111.41 85.1 114.54 84.39 118.17 83.56V83.57Z" fill="#3E7040"/>
<path d="M38.1201 89.55C46.0201 90.35 54.3101 91.11 61.7201 91.31L62.3701 90.4C69.2301 80.86 72.3601 76.5 71.6301 74.75C71.1501 73.61 68.6501 73.22 64.8601 72.64C60.6601 71.99 54.9101 71.09 47.5501 68.65L47.4901 68.63C46.6801 68.25 45.7501 68.52 44.7301 69.45C40.5401 73.25 37.0101 85.36 38.1201 89.55Z" fill="#3E7040"/>
<path d="M15.2 70.92C10.59 71.95 6.23 72.93 2.51 73.17C0.75 78.52 0.52 85.4 0.3 92.06C0.22 94.47 0.14 96.75 0 98.96C5.37 98.32 11.31 96.64 17.06 95.02C21.17 93.86 25.42 92.66 29.45 91.84C30.04 89.35 30.95 86.82 31.91 84.14C33.85 78.75 35.85 73.18 34.91 68.17C28.69 67.9 21.84 69.43 15.2 70.92Z" fill="#3E7040"/>
<path d="M22.3698 121.18C25.2098 120.14 28.1498 119.07 30.4898 118.34L30.6198 118.32C31.1098 117.99 31.1298 114.24 27.6398 102.44C27.2898 101.25 26.0998 100.51 24.8798 100.74C20.3698 101.55 5.66982 104.37 1.81982 107.39C3.26982 110.73 4.20982 113.95 5.03982 116.8C6.18982 120.73 7.08982 123.83 8.70982 125.04C9.72982 125.81 17.0398 123.14 22.3798 121.18H22.3698Z" fill="#3E7040"/>
<path d="M55.0302 117.51C58.1402 115.73 58.6602 110.9 59.1602 106.23C59.4502 103.47 59.7302 100.86 60.5002 98.74C54.5502 96.6 44.0502 97.75 35.9102 99.62C36.4102 105.73 36.2302 110.01 36.1102 112.87C35.9902 115.68 35.9302 117.22 36.5602 117.84C37.3002 118.55 39.4302 118.39 43.3202 118.11C46.1102 117.9 49.9202 117.62 55.0302 117.51Z" fill="#3E7040"/>
<path d="M75.9502 100.11L78.5202 101.8C79.8502 102.67 81.1802 103.55 82.5102 104.42C83.0602 104.78 83.6202 105.15 84.2302 105.26C86.4902 105.68 88.6002 103.42 90.1302 101.76L90.3502 101.52C91.5002 100.28 92.7402 99.08 93.9302 97.92C95.5602 96.34 97.2502 94.7 98.7202 92.97C99.2402 92.35 99.6102 91.82 99.7302 91.23C99.9802 89.86 97.8602 88.51 96.3002 87.51C95.7902 87.19 95.3502 86.91 95.0202 86.64C94.5902 86.3 94.1602 85.97 93.7302 85.63C92.0802 84.32 90.3702 82.97 88.5602 81.87C86.0302 80.33 83.3502 79.82 81.4002 80.5C79.9602 81 78.9102 82.13 78.2702 83.86C77.5302 85.85 76.2802 87.58 75.0602 89.24C74.1702 90.45 73.2602 91.71 72.5802 93.03C71.7502 94.65 71.3202 95.62 72.1502 96.85C72.2802 97.05 72.4402 97.24 72.6102 97.45L72.7002 97.55C73.6002 98.55 74.7902 99.33 75.9502 100.09V100.11Z" fill="#3E7040"/>
<path d="M63.6502 118.4C63.6802 118.46 63.7002 118.5 63.7302 118.54L63.7902 118.62C63.9502 118.83 64.1702 119.02 64.3902 119.21C66.5602 121.05 69.4302 123.35 72.4402 124.83C74.3002 125.74 75.5802 124.23 77.1802 121.98L77.3502 121.74C78.1002 120.7 78.7602 119.53 79.4602 118.3C80.6602 116.19 81.9002 114.01 83.6402 112.4C79.6102 107.32 72.1402 104.27 66.3902 103.48C66.3102 103.47 66.0802 103.44 66.0302 103.48C65.9702 103.52 65.9102 103.75 65.8902 103.83C64.7102 108.17 63.4902 112.66 63.4902 117.2C63.4902 117.64 63.5002 118.07 63.6702 118.41L63.6502 118.4Z" fill="#3E7040"/>
<path d="M54.3598 139.17C54.8398 139.14 55.3098 139.12 55.7498 139.11C59.2098 139 59.5998 133.42 59.8398 130.08C59.8798 129.57 59.9098 129.11 59.9498 128.72C60.0198 128.05 60.0498 127.42 59.7698 126.95C59.5598 126.59 59.1498 126.33 58.7398 126.1C53.7698 123.29 46.5398 123.54 41.3498 124.24C41.1798 124.26 41.1098 124.29 41.0698 124.3C41.0698 124.36 41.0898 124.43 41.1098 124.49C41.3198 125.35 41.4998 126.25 41.6998 127.19C42.4198 130.69 43.2298 134.65 45.5498 137.28C47.5298 139.52 51.3198 139.32 54.3598 139.17Z" fill="#3E7040"/>
<path d="M36.0601 144.31C36.4501 144.04 36.8401 143.77 37.2401 143.51C38.3801 142.75 39.5501 141.96 40.5401 141.06C40.6101 141 40.7401 140.88 40.7701 140.79C40.8201 140.65 40.6701 140.35 40.6001 140.21C39.6501 138.32 38.3501 135.92 36.6901 134.07C36.4601 133.82 36.2401 133.59 36.0301 133.38C35.5201 132.87 35.0401 132.38 34.5701 131.61L32.5101 128.24C32.3901 128.04 32.2701 127.83 32.1501 127.62C31.4801 126.44 30.9001 125.42 29.6201 125.42C29.2601 125.42 28.8701 125.53 28.5001 125.63C23.7401 126.95 14.5401 130.53 13.7401 134.6C13.4601 136.01 14.2401 137.44 16.0501 138.85C16.8601 139.48 17.5501 140.4 18.2101 141.29C18.5801 141.79 18.9301 142.26 19.2801 142.66C20.0501 143.53 20.9801 144.54 22.0101 145.5C23.2201 146.62 24.6801 147.82 26.3501 148.23C29.4501 148.99 32.6701 146.7 35.2501 144.87C35.5201 144.68 35.7901 144.48 36.0501 144.3L36.0601 144.31Z" fill="#3E7040"/>
<path d="M50.0199 145.29C49.5099 144.4 48.9399 143.51 48.0999 143.34C47.5699 143.23 47.0599 143.5 46.4699 143.81C46.2299 143.94 45.9899 144.07 45.7299 144.17C44.6099 144.63 43.7099 145.09 42.8999 145.61C42.4899 145.87 42.0599 146.09 41.6499 146.3C40.6899 146.79 39.7799 147.26 39.2499 148.18C38.4399 149.58 39.3799 150.63 40.0199 151.12C40.7999 151.73 41.4599 152.56 42.0899 153.37C43.2399 154.84 44.3399 156.22 46.0799 156.39C48.0699 156.58 49.6199 155.07 51.1199 153.61C51.4699 153.27 51.7999 152.95 52.1399 152.65C52.6199 152.22 53.1799 151.56 53.0999 150.9C53.0599 150.59 52.8799 150.27 52.6999 149.97L50.0199 145.29Z" fill="#3E7040"/>
<path d="M84.0701 122.16C83.5901 122.77 83.2101 123.42 82.8001 124.11C82.6601 124.35 82.5101 124.6 82.3601 124.84C81.6101 126.07 80.6501 127.15 79.7201 128.19C79.4801 128.46 79.2301 128.73 79.0001 129.01C78.6801 129.37 78.3801 129.76 78.4201 130.1C78.4401 130.31 78.5901 130.54 78.7901 130.81C80.2801 132.86 81.8801 134.87 83.5301 136.79C84.0601 137.4 84.6301 138.01 85.3201 138.08C86.0001 138.15 86.6801 137.7 87.3201 137.23C88.7401 136.18 90.1501 135.08 91.5101 133.94C92.0701 133.47 92.6301 132.99 93.1701 132.5C94.1501 131.63 93.9601 130.88 93.1701 129.53C91.6801 126.94 89.8201 124.63 88.3701 122.9C88.2401 122.74 88.0701 122.51 87.8701 122.23C87.4901 121.71 86.4801 120.32 86.0901 120.25C86.0901 120.25 86.0901 120.25 86.0801 120.25C85.9101 120.25 85.4001 120.44 84.1401 122.08L84.0801 122.16H84.0701Z" fill="#3E7040"/>
<path d="M100.48 101.3L100.23 101.6C99.4702 102.5 98.7202 103.43 98.0002 104.33C96.7402 105.89 95.4402 107.51 94.0402 109.02C92.5902 110.57 92.1802 112.81 92.9802 114.73C94.1802 117.61 96.3202 120.17 98.7902 122.98C100.12 124.5 102.3 124.96 104.09 124.1C105.52 123.41 106.96 122.46 108.35 121.54C109.92 120.5 111.54 119.43 113.19 118.71C117.28 116.93 118.61 115.05 117.65 112.44C117.2 111.21 116.35 109.96 115.54 108.75C115.34 108.46 115.15 108.17 114.96 107.88C114.78 107.6 114.61 107.33 114.44 107.06C113.31 105.19 111.94 103.01 110.37 101.01C109.05 99.34 107.47 97.67 105.61 97.67C105.44 97.67 105.26 97.68 105.09 97.71C103.25 98.02 101.73 99.83 100.5 101.29L100.48 101.3Z" fill="#3E7040"/>
<path d="M146.89 103.68C146.39 102.3 145.71 100.88 144.75 99.21C144.05 97.99 143.27 96.78 142.51 95.61C141.51 94.05 140.47 92.45 139.59 90.77C138.28 88.31 136.07 87.07 132.98 87.07C131.89 87.07 130.69 87.22 129.38 87.54C127.32 88.03 125.28 88.76 123.31 89.47L122.58 89.73C122 89.94 121.4 90.13 120.83 90.31C119.08 90.87 117.42 91.39 116.03 92.44C114.66 93.47 115.31 95 116.38 97.04L116.54 97.35C117.28 98.78 117.92 100.28 118.53 101.72C118.98 102.77 119.44 103.87 119.94 104.9C122.57 110.42 127.92 113.08 133.56 111.67C135.47 111.19 137.3 110.43 139.07 109.69C141.57 108.65 144.06 107.6 146.55 106.55C147.73 106.05 147.63 105.65 147.08 104.18C147.02 104.02 146.95 103.85 146.89 103.67V103.68Z" fill="#3E7040"/>
<path d="M181.53 107.42C181.07 104.71 180.21 101.85 178.84 98.4C177.77 95.73 176.53 93.08 175.32 90.51L174.78 89.35C174.64 89.05 174.51 88.75 174.38 88.46C173.51 86.5 172.89 85.08 170.6 85C165.37 84.82 160.08 84.8 154.86 84.96C154.68 84.96 154.5 84.96 154.32 84.97C152.47 85 151.49 85.09 151.1 86.5C150.61 88.28 151.2 90.32 151.72 92.13L156.07 107.31C157.35 111.77 158.69 115.28 163.21 116.39C165.68 117 168.29 116.81 170.82 116.62L177.6 116.12C178.71 116.04 179.97 115.95 180.93 115.34C182.8 114.15 182.13 110.66 181.69 108.34C181.63 108.01 181.57 107.7 181.52 107.43L181.53 107.42Z" fill="#3E7040"/>
<path d="M151.79 130.86C151.67 128.4 151.43 126.29 151.02 124.23C150.92 123.71 150.86 123.17 150.8 122.64C150.64 121.17 150.49 119.78 149.5 118.82C148.1 117.47 145.8 117.69 143.75 118C142.34 118.21 140.87 118.37 139.45 118.52C137.15 118.77 134.77 119.03 132.58 119.51C130.05 120.07 128.42 121.87 128.21 124.33C128.08 125.83 128.33 127.31 128.58 128.87C128.68 129.47 128.78 130.1 128.86 130.72C128.96 131.53 129.02 132.36 129.08 133.16C129.17 134.36 129.26 135.61 129.5 136.8C129.87 138.66 130.58 140.19 131.57 141.22C131.76 141.42 131.97 141.61 132.18 141.78C133.44 142.75 134.89 142.7 136.43 142.65C136.79 142.64 137.15 142.62 137.52 142.62C137.89 142.62 138.24 142.63 138.6 142.67C141.85 142.99 144.56 143.19 147.36 142.64C147.72 142.57 148.1 142.52 148.47 142.48C150.04 142.29 151.1 142.09 151.49 141.04C151.87 140.02 151.83 138.78 151.8 137.59C151.79 137.19 151.78 136.77 151.78 136.38V135.58C151.82 134.04 151.84 132.44 151.78 130.88L151.79 130.86Z" fill="#3E7040"/>
<path d="M123.34 134.95C123.42 133.21 123.36 131.79 123.16 130.48C122.79 128.02 122 126.33 120.75 125.32C119.81 124.56 118.77 124.26 117.67 124.26C115.49 124.26 113.13 125.44 111.09 126.45C110.57 126.71 110.07 126.96 109.6 127.17C108.49 127.68 107.37 128.23 106.29 128.75C105.73 129.02 105.18 129.29 104.62 129.56C104.29 129.72 103.99 129.87 103.9 130.09C103.83 130.25 103.86 130.49 103.91 130.78C104.04 131.55 104.12 132.39 104.22 133.27C104.57 136.55 104.96 140.26 107.54 141.96C111.53 144.59 119.67 143.67 122.81 140.22C123.31 139.68 123.31 137.13 123.32 135.91C123.32 135.51 123.32 135.17 123.33 134.93L123.34 134.95Z" fill="#3E7040"/>
<path d="M127.44 148.9L127.2 149.2C125.08 151.76 120.67 157.08 121.01 160.58C121.09 161.41 121.43 162.07 122.04 162.6C123.67 163.05 125.36 163.79 127.15 164.58C131.56 166.51 136.12 168.51 139.91 166.13C146.4 159.67 149 154.95 147.65 152.1C146.58 149.84 142.2 147.46 127.43 148.92L127.44 148.9Z" fill="#3E7040"/>
<path d="M133.04 176.21C134.05 175.04 134.44 174.04 134.2 173.26C133.67 171.54 130.15 170.6 127.31 169.84C125.74 169.42 124.25 169.02 123.26 168.52C119.45 166.33 115.82 167.12 111.09 171.14L111.04 171.17C109.8 172.01 109.19 172.85 109.18 173.74C109.15 175.83 112.38 178.13 115.23 180.16C116.97 181.4 118.61 182.57 119.51 183.67C123.5 184.54 127.73 180.82 131.14 177.82C131.8 177.24 132.43 176.69 133.03 176.19L133.04 176.21Z" fill="#3E7040"/>
<path d="M99.9498 193.78C94.3198 190.85 90.7998 189.99 89.1898 191.16C87.1698 192.63 87.9998 197.43 88.9598 202.99C89.1898 204.32 89.4198 205.69 89.6298 207.07C95.5698 210.95 99.6998 212.2 101.59 210.7C103.88 208.88 103.29 202.87 99.9498 193.78Z" fill="#3E7040"/>
<path d="M181.7 128.8C181.71 128.7 181.73 128.59 181.75 128.47C181.89 127.59 182.18 125.77 181.63 125.17C181.15 124.64 179.63 124.58 178.62 124.54C178.23 124.52 177.86 124.51 177.57 124.47C173.96 124.04 170.3 123.66 166.67 123.33C166.15 123.28 165.57 123.16 164.97 123.04C163.51 122.74 161.85 122.39 160.84 123.09C159.48 124.04 159.28 126.66 159.17 128.07L158.35 138.59C158.31 139.06 158.27 139.52 158.22 139.96C157.96 142.64 157.75 144.77 159.64 146.91C160.91 147.52 162.5 148.56 164.17 149.66C168.27 152.35 173.36 155.69 176.26 154.37C177.53 153.79 178.35 152.28 178.7 149.86C178.53 144.93 179.5 140.17 180.44 135.57C180.89 133.36 181.36 131.07 181.69 128.79L181.7 128.8Z" fill="#3E7040"/>
<path d="M165.53 181.7C165.81 181.14 166.08 180.6 166.35 180.1L166.47 179.88C167.94 177.17 169.47 174.36 171.32 171.8L171.44 171.63C171.8 171.14 172.16 170.63 172.58 170.17L172.7 170.04C173.91 168.68 174.41 167.33 174.2 166.05C173.85 163.95 171.7 162.32 169.95 161.33C168.32 160.4 166.55 159.62 164.84 158.87C164.39 158.67 163.95 158.48 163.5 158.28C162.85 157.99 162.19 157.62 161.54 157.26C160.02 156.42 158.46 155.55 156.92 155.55C156.8 155.55 156.69 155.55 156.57 155.56C154.19 155.77 152.96 157.73 151.72 160.07C150.42 162.51 149.08 165.03 148.19 167.68C147.36 170.15 147.52 172.96 148.65 175.81C150.03 179.27 153.89 182.89 156.78 184.94C159.4 186.8 161.48 187.44 162.34 186.65C163.64 185.46 164.64 183.46 165.52 181.7H165.53Z" fill="#3E7040"/>
<path d="M156.91 194.79C156.02 193.68 155.03 192.17 153.9 190.44C150.74 185.61 146.81 179.59 142.62 178.91C141.21 178.68 139.89 179.08 138.56 180.11C137.47 181.87 135.35 183.21 133.3 184.51C129.11 187.17 126.7 189.05 128.73 192.54C130.49 194.19 131.39 197.32 132.26 200.34C133.2 203.61 134.17 207 136.14 207.82C137.09 208.21 138.26 208.02 139.72 207.23C141.5 205.97 143.72 204.96 146.07 203.9C150.91 201.71 155.92 199.45 156.9 194.79H156.91Z" fill="#3E7040"/>
<path d="M107.42 195.62C107.37 195.68 107.32 195.74 107.28 195.81C107.02 196.29 107.22 196.89 107.39 197.41C109.01 202.14 107.35 214.36 114.87 214.72C115.77 214.58 116.91 214.5 118.23 214.41C122.22 214.13 127.68 213.74 129.29 211.32C129.85 210.48 129.91 209.44 129.48 208.14L129.47 208.1C128.86 205.57 128.1 203.07 127.04 200.69C125.98 198.31 124.45 195.99 123.25 193.57C123.13 193.32 123 193.07 122.79 192.89C122.43 192.58 121.9 192.55 121.42 192.56C119.11 192.61 116.87 193.24 114.66 193.83C112.63 194.37 110.57 194.57 108.56 195.08C108.15 195.18 107.71 195.32 107.44 195.62H107.42Z" fill="#3E7040"/>
<path d="M120.26 148.57C119.95 148.36 119.22 148.35 118.68 148.35C118.43 148.35 118.2 148.35 118 148.33C117.01 148.25 116.03 148.15 115.04 148.05C114.55 148 114.06 147.95 113.57 147.91L105.02 147.1C104.85 147.08 104.68 147.07 104.53 147.07C104.31 147.07 104.12 147.1 103.97 147.19C103.64 147.38 103.48 147.88 103.35 148.38C102.79 150.48 101.81 152.52 101.54 154.72C101.22 157.35 102.63 157.73 104.7 158.39C107.69 159.34 110.57 160.28 113.69 160.75C114.2 160.83 114.77 160.88 115.19 160.58C115.48 160.37 115.65 160.02 115.79 159.69C116.71 157.64 117.68 155.93 118.88 154.07L118.96 153.94C119.73 152.76 121.76 149.62 120.26 148.58V148.57Z" fill="#3E7040"/>
<path d="M103.61 170.04C103.87 169.85 104.13 169.65 104.39 169.45L104.48 169.38C105.3 168.72 107.49 166.98 106.74 165.99C106.6 165.8 106.04 165.61 105.71 165.5C105.52 165.43 105.34 165.37 105.2 165.31C104.49 165 103.78 164.69 103.07 164.37L95.8501 161.17C95.6301 161.07 95.3501 160.95 95.1601 160.98C94.9401 161.02 94.7201 161.34 94.5301 161.62L90.6501 167.53C90.6501 167.53 90.6201 167.58 90.6001 167.61C90.6101 167.62 90.6301 167.64 90.6501 167.66C91.7801 168.65 93.1901 169.22 94.6801 169.83C95.5001 170.16 96.3401 170.51 97.1401 170.93C97.3601 171.05 97.5801 171.17 97.8001 171.29C98.4301 171.64 99.0301 171.98 99.6801 172.15C100.61 172.4 101.15 172.23 101.91 171.46C102.44 170.91 103.04 170.47 103.61 170.04Z" fill="#3E7040"/>
<path d="M95.9899 137.56C95.8799 137.53 95.7599 137.52 95.6499 137.52C95.0299 137.52 94.3599 137.9 93.6499 138.64C92.9399 139.39 92.1499 140.05 91.3799 140.7C90.5499 141.4 89.6899 142.12 88.9599 142.93C88.8099 143.09 88.6499 143.27 88.6299 143.34C88.6299 143.39 88.7299 143.64 88.7899 143.79C88.9799 144.26 89.2599 144.75 89.5399 145.21L89.7199 145.51C90.4199 146.71 91.2099 147.87 92.0799 148.95C92.6899 149.71 93.4399 150.5 94.3499 150.57C95.1399 150.62 95.9199 150.1 96.6499 149.52L96.8299 149.37C98.4299 148.06 98.9999 146.87 98.9499 144.94C98.9199 143.4 98.6899 141.92 98.2599 140.55C97.7499 138.89 96.9099 137.77 95.9999 137.56H95.9899Z" fill="#3E7040"/>
<path d="M112.16 187.08C112.16 187.08 112.23 187.03 112.24 187.02C112.24 187 112.27 186.94 112.23 186.71C112.05 185.79 111.53 184.94 111.02 184.12L110.77 183.71C109.25 181.23 106.82 177.27 103.91 177.27C103.54 177.27 103.17 177.33 102.78 177.47C100.61 178.25 98.4202 179.08 96.2902 179.96C95.7602 180.18 95.1602 180.42 94.7402 180.83C94.1202 181.43 93.9102 182.5 94.1702 183.76C94.5202 185.46 95.6002 187.06 96.6902 187.48C97.5202 187.8 98.4302 187.89 99.3702 187.95C104.04 188.29 107.95 188.29 111.87 187.19C111.97 187.16 112.08 187.13 112.15 187.09L112.16 187.08Z" fill="#3E7040"/>
<path d="M79.5698 189.06C79.3298 188.99 79.1198 188.96 78.9398 188.96C78.3598 188.96 77.9698 189.3 77.3798 190.05C76.8598 190.71 76.5398 191.43 76.1998 192.2C76.0198 192.59 75.8398 193 75.6298 193.41C75.5298 193.6 75.4298 193.75 75.3298 193.91C75.1898 194.13 75.0698 194.32 74.9898 194.55C74.8398 194.99 74.7098 195.46 74.5898 195.92C74.5298 196.16 74.4598 196.4 74.3998 196.64C74.2898 197.04 74.1898 197.42 74.3198 197.68C74.4098 197.88 74.6598 198.05 74.8698 198.21L76.8798 199.64C77.4598 200.05 78.0498 200.48 78.6898 200.74C79.0998 200.9 79.4198 200.94 79.6398 200.85C79.8098 200.78 79.9798 200.6 80.1398 200.45L80.3298 200.25C82.0898 198.42 83.9598 196.18 84.4398 193.48C84.4698 193.34 84.4898 193.18 84.4698 193.05C84.4498 192.93 84.3698 192.79 84.2898 192.67C83.2298 190.95 81.5098 189.64 79.5698 189.09V189.06Z" fill="#3E7040"/>
</g>
<defs>
<clipPath id="clip0_5246_1412">
<rect width="659.64" height="214.72" fill="white"/>
</clipPath>
</defs>
</svg>
